<svg id="visual" viewBox="0 0 900 600" width="900" height="600" xmlns="http://www.w3.org/2000/svg" xmlns:xlink="http://www.w3.org/1999/xlink" version="1.1"><rect x="0" y="0" width="900" height="600" fill="#a9c6ff"></rect><defs><linearGradient id="grad1_0" x1="33.3%" y1="0%" x2="100%" y2="100%"><stop offset="20%" stop-color="#a9c6ff" stop-opacity="1"></stop><stop offset="80%" stop-color="#a9c6ff" stop-opacity="1"></stop></linearGradient></defs><defs><linearGradient id="grad2_0" x1="0%" y1="0%" x2="66.7%" y2="100%"><stop offset="20%" stop-color="#a9c6ff" stop-opacity="1"></stop><stop offset="80%" stop-color="#a9c6ff" stop-opacity="1"></stop></linearGradient></defs><g transform="translate(900, 0)"><path d="M0 405.6C-71.7 395.4 -143.4 385.3 -202.8 351.3C-262.3 317.3 -309.5 259.5 -341.2 197C-373 134.5 -389.3 67.2 -405.6 0L0 0Z" fill="#1d61db"></path></g><g transform="translate(0, 600)"><path d="M0 -405.6C73.6 -396.6 147.3 -387.5 202.8 -351.3C258.3 -315 295.7 -251.6 326.5 -188.5C357.3 -125.4 381.4 -62.7 405.6 0L0 0Z" fill="#1d61db"></path></g></svg>